<svg version="1.2" xmlns="http://www.w3.org/2000/svg" viewBox="0 0 752 825" width="752" height="825"><defs><clipPath clipPathUnits="userSpaceOnUse" id="cp1"><path d="m0-0.47h752v727.14h-752z"/></clipPath></defs><style>.a{fill:#290056}</style><path class="a" d="m287.9 317.4v113.4q0 6.8-7.7 6.8h-20.6v-127h20.6q7.7 0 7.7 6.8z"/><path class="a" d="m441.2 381.5h-29v-19.4q0-6.8 7.7-6.8h13.6q7.7 0 7.7 6.8z"/><path class="a" d="m95.1 619.8v-107.3q0-6.8 7.7-6.8h12.9q7.7 0 7.7 6.8v107.3q0 6.8-7.7 6.8h-12.9q-7.7 0-7.7-6.8z"/><path class="a" d="m425.8 573.5h-28.9v-19.4q0-6.8 7.7-6.8h13.5q7.7 0 7.7 6.8z"/><g clip-path="url(#cp1)"><path fill-rule="evenodd" class="a" d="m529.3 278.7h163.1l-41.5 161.8h81.1v30.2h19.4l-0.3 235h-66.8c-19.2 0-40.9-3.8-58.4-17.8-17.6 14-39.3 17.8-58.5 17.8h-30.2c-17.4 0-36.9-3.2-53.4-14.1-16.6 10.9-36.1 14.1-53.5 14.1h-161.4l19.7 20.9h-172.9l-19.4-20.9h-9.7c-48 1.2-86.5-29-85.9-78.8v-121.5c-0.6-49.8 37.8-80 85.9-78.8h45.6c10.7 0 22 1.2 33 4.6v-196.6h131.5c19.9 0 42.3 4 60.2 19.1 9.8 8.3 16.3 18.3 20.3 28.9 10.4-2.9 21-3.9 30.9-3.9h28.1l21.9-88-70.1-17.5-13.2-21.9 21.9-13.1 96.5 24 24-96.4-19.7-32.9 54.7-32.9 32.9 54.8-32.8 19.7-24.1 96.5 96.5 24 13.1 21.9-21.9 13.2-70.1-17.5zm-232.8-3.5h-90.9v197.9h90.9q45.3 0 45.3-38.2v-121.5q0-38.2-45.3-38.2zm149 44.1h-37.6q-45.3 0-45.3 38.2v77.4q0 38.2 45.3 38.2h37.6q45.3 0 45.3-38.2v-13.9h-49.6v8.6q0 7.4-7.7 7.4h-13.6q-7.7 0-7.7-6.7v-20.4h78.6v-52.4q0-38.2-45.3-38.2zm123.8 98.6l-18.8-98.6h-52.1l39.5 153.8h62.6l39.4-153.8h-52.1zm-528.2 208.9q0 38.3 45.3 38.3h27.5l19.4 20.9h61.3l-28.6-30.5q11.4-9.5 11.4-28.7v-121.4q0-38.3-45.3-38.3h-45.7q-45.3 0-45.3 38.3zm284.4-115.6h-52.4v-0.1 106.1q0 9.3-8.3 9.3h-5.2q-7.8 0-7.8-6.8v-108.5h-52.4v115.6q0.1 38.2 41 38.2h5.6q23.7 0 28.1-19.7v19.7h51.4zm104.6 0h-37.6q-45.3 0-45.3 38.2v77.4q0 38.2 45.3 38.2h37.6q45.3 0 45.3-38.2v-13.9h-49.6v8.7q0 7.4-7.7 7.4h-13.6q-7.7 0-7.7-6.8v-20.4h78.6v-52.4q0-38.2-45.3-38.2zm131.6 100.8v12.3q0 6.8-7.7 6.8h-3.7q-7.7 0-7.7-6.8v-10.2h-50.9v12.7q0 38.2 45.3 38.2h30.2q45.3 0 45.3-38.2v-17q0-18.2-10.4-27.7-10.2-9.9-34-9.9h-18.8q-7.7 0-7.7-6.8v-13.5q0-6.8 7.7-6.8h3.1q7.7 0 7.7 6.8v10.5h50v-13q0-38.2-45.3-38.2h-28.7q-45.3 0-45.3 38.2v17.9q0 37.9 44.4 37.9h18.8q7.7 0 7.7 6.8zm129.5-62.3h19.5v-38.5h-19.5v-30.2h-52.4v30.2h-16.9v38.5h16.9v77.1q0 38.2 45.3 38.2h26.2v-38.5h-11.4q-7.7 0-7.7-6.8z"/></g><path class="a" d="m324.5 726.5h93.2l-16.2 64.9-54.8 32.9-32.9-54.8z"/></svg>