<svg version="1.2" xmlns="http://www.w3.org/2000/svg" viewBox="0 0 1194 1009" width="1194" height="1009"><defs><linearGradient id="P" gradientUnits="userSpaceOnUse"/><linearGradient id="g1" x2="1" href="#P" gradientTransform="matrix(-418.576,717.935,-632.096,-368.529,967.304,120.774)"><stop stop-color="#ffc152"/><stop offset="1" stop-color="#ef5e68"/></linearGradient></defs><style>.a{fill:url(#g1)}</style><path fill-rule="evenodd" class="a" d="m990.1 494.5q-3.4 6.6-6.7 13.1-3.6 7.2-9.6 16.8-6 9.6-11.7 17.1-5.7 7.5-9.9 10.8-4.2 3.3-4.2-2.1 0-6.6 3.6-21l8.4-31.3q3-6.6 3.3-8.7 0.3-2.1 0.9-3.9l7.2-23.4q0.6-4.2 1.8-7.8c0.8-2.4 1.6-5 1.8-7.8q1.8-4.8 2.4-9.6 0.6-4.8 0.6-9 0-15.7-9-28-9-12.3-29.4-12.3-22.2 0-41.4 13.2-3.6 1.8-8.4 6.6-1.2-12-5.4-20.1-4.2-8.1-13.8-11.1-6.6-2.4-15-2.4c-5.6 0-16.5 3.2-17.3 3.9-1.5 1.3-1.9 11.4-3.1 18q-1.8 9.9-5.4 23.5-3.6 13.5-8.1 29.7-4.5 16.2-8.7 32.4-1 3.6-2 7.2-5 9.8-9.8 19.3-3.6 7.2-9.6 16.8-6 9.6-11.7 17.1-5.7 7.5-9.9 10.8-4.2 3.3-4.2-2.1 0-6.6 3.6-21l8.4-31.3q3-6.6 3.3-8.7 0.3-2.1 0.9-3.9l7.2-23.4q0.6-4.2 1.8-7.8c0.8-2.4 1.6-5 1.8-7.8q1.8-4.8 2.4-9.6 0.6-4.8 0.6-9 0-15.7-9-28-9-12.3-29.4-12.3-22.2 0-41.5 13.2-3.6 1.8-8.4 6.6-1.2-12-5.4-20.1-4.2-8.1-13.8-11.1-6.6-2.4-15-2.4c-5.6 0-17.3 3.7-18.2 4.9-0.9 1.1-1 10.4-2.2 17q-1.8 9.9-5.4 23.5-3.6 13.5-8.1 29.7-4.5 16.2-8.7 32.4-2.4 9-4.8 17.7-2.6 4.9-5.2 10-6.6 9.6-12.9 18.6-6.3 9-11.7 15.3-5.4 6.3-8.7 8.4-3.3 2.1-3.3-2.1 0-5.4 3.6-19.8 0.6-1.8 2.4-9.3 1.8-7.5 4.8-18.1 3-10.5 6-22.5 3-12 6-22.8 3-10.8 5.1-19.2 2.1-8.4 3.3-10.8 1.2-4.8 1.8-8.7 0.6-4 0.6-8.8 0-11.4-4.8-19.5-4.8-8.1-16.8-12.9-3-1.2-6.9-1.8-3.9-0.6-7.5-0.6c-5.6 0-16.9 3.9-17.8 4.9-1.2 1.3-1.4 9.8-2 13.4q-1.2 6.9-3.3 16.5-2.1 9.7-4.8 21.7-2.7 12-5.7 23.4-4.8 12-12.3 26.4-7.5 14.4-14.7 28.3-5.4 9-12 18-6.6 9-12 15.6-5.4 6.6-9.3 9-3.9 2.4-3.9-2.4 0-7.8 4.2-19.8l23.4-77.5q6.6-21 9-31.5 2.4-10.6 2.4-17.2 0-9-3.9-15-3.9-6-9.6-10.2-5.7-4.2-12.3-6-6.6-1.8-12-1.8c-4.8 0-13.3 2.8-13.9 3.4-0.3 0.3-0.6 1.7-0.9 3.9-0.9 5.9-2.3 17.3-4.7 26.3q-5.1 18.7-11.7 40.3-3.6 12-7 24-3.3 12-6.3 23.4-3 11.4-4.8 21.1-1.8 9.6-1.8 16.2c0 11.6-1.1 19.4 7.8 33.9 9 14.5 15.1 19.9 29.5 26.7 6.4 2.8 11.7 5.5 18.6 0.9 6.8-4.5 25.9-26.7 30.5-33.5q6.9-10.2 12.3-20.4c1.2 9.2 5.5 23.1 10.9 31.7q8.1 12.9 27.3 21.3c7.2 3.2 13.2 4 21.3-0.9 7.8-4.7 16.2-17.3 22.4-24.9q0.5 2.2 1.4 4.2 3.9 9 11.1 15 7.2 6 16.5 8.1c6.2 1.4 18.3 0.3 18.3 0.3 0 0 1.8-10.7 3-18.9q1.8-12.3 5.1-27 3.3-14.7 7.8-30.3 4.5-15.7 8.7-29.5 3-7.2 11.7-22.5 8.7-15.3 26.7-30.9 5.4-5.4 9.7-5.4 3 0 3 10.2 0 6.6-6.7 26.4 0 1.2-0.3 1.2c-0.2 0-0.5 0.4-0.3 1.2q-4.2 11.4-7.8 23.1-3.6 11.7-6 22.6-0.6 3.6-0.9 8.1-0.3 4.5-0.3 9.3 0 17.4 7.5 33.9 7.5 16.5 29.8 26.7 10.8 4.8 21.3-0.6 10.5-5.4 19.5-16.2 2.3-2.8 4.5-5.7 0.2 0.5 0.4 0.9 3.9 9 11.1 15 7.2 6 16.5 8.1 9.3 2.1 18.3 0.3 1.8-10.7 3-18.9 1.8-12.3 5.1-27 3.3-14.7 7.8-30.3 4.5-15.7 8.7-29.5 3-7.2 11.7-22.5 8.7-15.3 26.7-30.9 5.4-5.4 9.6-5.4 3 0 3 10.2 0 6.6-6.6 26.4 0 1.2-0.3 1.2c-0.2 0-0.5 0.4-0.3 1.2q-4.2 11.4-7.8 23.1-3.6 11.7-6 22.6-0.6 3.6-0.9 8.1-0.3 4.5-0.3 9.3 0 17.4 7.5 33.9 7.5 16.5 29.7 26.7 10.8 4.8 21.3-0.6 10.5-5.4 19.5-16.2 7.3-8.7 13.6-18.6 1.2 3.4 2.7 6.6 6.9 14.4 28.6 24.6 7.2 3 14.4 2.1 7.2-0.9 13.8-5.1 6.6-4.2 12.9-10.5 6.3-6.3 11.7-13.5v1.2q-1.2 6.6-2.4 12-1.2 5.4-3 9.6l-14.4 8.1q-9 4.5-16.2 8.8-25.9 13.2-43.3 24-17.4 10.8-28.2 26.4-9.6 14.4-9.6 34.2 0 15.1 6.3 28.6 6.3 13.5 20.1 18.9 10.2 4.2 21.6 4.2 12 0 23.8-4.8 11.7-4.8 22.2-12.3 10.5-7.5 18.9-16.8 8.4-9.3 14.4-19 12-21 24.3-51 8.2-20 22.5-61.9 33-24 59.7-55.2 2-2.4 4-4.8c-3.4 274.5-231.1 496-511.5 496-206.3 0-384.2-120-465-292.7v147.5l56.7 22.1c12.4 5.6 18.2 20.1 13 32.8-5.1 12.8-19.4 19.1-32.2 14.6l11.9-29.3-49.4-19v104.5q2.9-0.7 6.1-0.7c13.8 0 25 10.8 25.7 24.4h-31.8-19.5v-135.7l-98.5-37.8-17.9-6.8 75.9-137c-23.1-9.6-47.2-23-71-35.6q-44.2-23.4-86.5 27.9 30-222.7 174.4-239.9c29.6-249.7 245.8-443.5 508.1-443.5 269.3 0 490.1 204.4 510 463.7q-5 8-10.6 15.3-16.2 21.3-35.4 38.8 4.2-13.3 7.2-23.5 3-10.2 5.4-19.8 2.4-9.6 4.8-19.5 2.4-9.9 5.4-21.9 3-10.8 3-22.3 0-10.8-4.2-19.8-4.2-9-14.4-13.2-3.6-1.2-7.8-1.8-4.2-0.6-7.8-0.6c-5.6 0-17 4-17.8 4.9-1 1.3-1.8 11.4-3.8 20-2 8.6-4.6 18.4-7.2 29.2q-6.6 16.8-16.5 38.1-9.9 21.3-20.7 41.2-5.4 9.6-11.7 18.6-6.3 9-12 15.3-5.7 6.3-9.3 8.7-3.6 2.4-3.6-2.4 0-7.2 3.6-19.8 12-39.7 18.6-62.5 6.6-22.8 9.9-34.8 3.3-12 3.9-15.9 0.6-4 0.6-7 0-10.8-3.9-19.8-3.9-9-15.3-13.2-3-1.2-6.9-1.8-3.9-0.6-7.5-0.6c-5.6 0-17.2 3.6-18 4.6-1.1 1.2-1.9 9.1-3.1 14.9q-1.8 8.7-5.1 21-3.3 12.4-6.9 26.2c-2.4 9.2-4.8 17.8-6.6 25.8l-2.4 7.2q-3.6 10.8-6.3 21.2zm-772.6 217v-7c40.9-1 144.7-11.9 195.6-110.9 52.5-102-35.7-187.1-66.2-213.8-29.8-26-66.1-86.8-8.2-130.1 8.9 17.8 27.4 30 48.9 30 5.8 0 11.4-0.8 16.6-2.5q38.8 6.8 51.4 59.3 6.8 6.6 13.6-30.1 5.2-28.1-29.7-64.2c1.6-5 2.5-10.3 2.5-15.8 0-29.5-24.4-53.4-54.4-53.4-18.5 0-34.9 9.1-44.7 23.1q-63.7 21.4-81 83.6-20.3 73.4 61.2 140.2 81.7 69.8 54.5 123.2c-27.1 53.3-3.2-98.1-174-101q-15.1-0.3-29.2 1.4c-2.2 19.2-3.4 38.8-3.4 58.6 0 74.7 16.6 145.7 46.5 209.4zm-19.5-8.2c-7.2-1.1-14.6-2.9-22.1-5.4l-66.4 119.1 88.5 34.4zm813.4-16.2q-10.2 0-10.2-6.6 0-6.6 7.2-18.6 8.4-12 24.4-23.7 15.9-11.7 35.1-22.5-13.2 31.2-27 53.4-8.7 11-14.1 13.8-8.2 4.2-15.4 4.2zm-479.4-59.3h-87.8q-2.2 0-2.2 2.2v9.2q0 2.2 2.2 2.2h34.5q0.9 0 0.9 0.9v137.3q0 2.2 2.2 2.2h11.2q2.2 0 2.2-2.2v-137.3q0-0.9 0.9-0.9h35.9q2.2 0 2.2-2.2v-9.2q0-2.2-2.2-2.2zm123.7 11.4v-9.2q0-2.2-2.2-2.2h-80.3q-2.2 0-2.2 2.2v149.6q0 2.2 2.2 2.2h80.3q2.2 0 2.2-2.2v-9.3q0-2.2-2.2-2.2h-66q-0.9 0-0.9-0.9v-55q0-0.8 0.9-0.8h44.5q2.2 0 2.2-2.2v-9.3q0-2.2-2.2-2.2h-44.5q-0.9 0-0.9-0.9v-54.5q0-0.9 0.9-0.9h66q2.2 0 2.2-2.2zm79.3 144.3q20.3 0 32.5-11.8 12.2-11.7 12.2-31.1v-2q0-1.7-2.2-1.7l-11.2-0.7q-2.2 0-2.2 2v3.1q0 12.7-8.1 20.7-8 7.9-21 7.9-13 0-20.9-7.8-7.9-7.8-7.9-20.8v-73.1q0-12.9 7.9-20.8 7.9-7.8 20.9-7.8 13 0 21 8 8.1 7.9 8.1 20.6v3.1q0 2 2.2 2l11.2-0.4q2.2 0 2.2-2.2v-2q0-19.4-12.2-31-12.2-11.7-32.5-11.7-20 0-32.2 11.8-12.2 11.7-12.2 31.3v71.1q0 19.6 12.2 31.4 12.2 11.9 32.2 11.9zm157.4-153.5v66.8q0 0.9-0.9 0.9h-54.5q-0.9 0-0.9-0.9v-66.8q0-2.2-2.2-2.2h-11.2q-2.2 0-2.2 2.2v149.6q0 2.2 2.2 2.2h11.2q2.2 0 2.2-2.2v-67.4q0-0.8 0.9-0.8h54.5q0.9 0 0.9 0.8v67.4q0 2.2 2.2 2.2h11.2q2.2 0 2.2-2.2v-149.6q0-2.2-2.2-2.2h-11.2q-2.2 0-2.2 2.2z"/></svg>