<svg version="1.2" xmlns="http://www.w3.org/2000/svg" viewBox="0 0 700 400" width="700" height="400"><style>.a{fill:#000}.b{fill:#6abfad}</style><path class="a" d="m442 232h56v56h-56z"/><path class="a" d="m442 172h56v56h-56z"/><path class="a" d="m442 112h56v56h-56z"/><path class="a" d="m382 112h56v56h-56z"/><path class="a" d="m502 112h56v56h-56z"/><path class="b" d="m382 112l56 56h-56z"/><path class="b" d="m262 172h56v56h-56z"/><path class="b" d="m262 232h56v56h-56z"/><path class="b" d="m322 232h56v56z"/><path class="b" d="m322 172l56 56h-56z"/><path class="b" d="m382 172h56v56h-56z"/><path class="b" d="m382 232h56v56h-56z"/><path class="a" d="m202 232h56v56h-56z"/><path class="a" d="m202 172h56v56h-56z"/><path class="a" d="m202 112h56v56h-56z"/><path class="a" d="m142 112h56v56h-56z"/><path class="a" d="m262 112h56v56h-56z"/><path class="b" d="m262 112l56 56h-56z"/></svg>