<svg xmlns="http://www.w3.org/2000/svg" style="max-inline-size:100%" fill="none" viewBox="0 0 37.03 33.03">
  <path d="M37.0346 24.7721V33.0295H16.2908C10.2472 33.0295 4.97036 29.7086 2.14712 24.7721C1.73669 24.0545 1.37748 23.3016 1.07616 22.5201C0.484642 20.9888 0.112811 19.3455 0 17.631V15.3985C0.0244919 15.0164 0.0630851 14.6373 0.113553 14.2627C0.216716 13.4941 0.372573 12.7419 0.577414 12.0107C2.51524 5.07903 8.81632 0 16.2908 0C23.7653 0 30.0656 5.07903 32.0034 12.0107H23.1337C21.6775 9.75121 19.1571 8.25738 16.2908 8.25738C13.4245 8.25738 10.9041 9.75121 9.44792 12.0107C9.0041 12.6976 8.65972 13.455 8.4341 14.2627C8.23372 14.9789 8.12684 15.7341 8.12684 16.5148C8.12684 18.8816 9.11097 21.015 10.6888 22.5201C12.1509 23.9171 14.1221 24.7721 16.2908 24.7721H37.0346Z" fill="#FD366E"/>
  <path d="M37.0347 14.2627V22.5201H21.8928C23.4706 21.015 24.4548 18.8816 24.4548 16.5147C24.4548 15.734 24.3479 14.9788 24.1475 14.2627H37.0347Z" fill="#FD366E"/>
</svg>