<svg xmlns="http://www.w3.org/2000/svg" xmlns:xlink="http://www.w3.org/1999/xlink" version="1.1" id="Layer_1" x="0px" y="0px" style="enable-background:new 0 0 1133.3 482.4;" xml:space="preserve" viewBox="172.6 159.7 172.4 159.8">
<style type="text/css">
	.st0{fill:#1D1D1B;}
</style>
<g>
	<g>
		<path class="st0" d="M316.2,272.1c-1.4-2.2-3-4.1-4.8-5.7c-1.8-1.6-3.8-2.9-5.9-3.9c4.4-1.7,8.3-3.8,11.7-6.4    c3.4-2.6,6.2-5.6,8.6-8.9c2.3-3.3,4.1-6.9,5.3-10.9c1.2-3.9,1.8-8.1,1.8-12.5c0-5.8-1-11.1-3-16c-2-4.9-5.2-9.2-9.6-12.8    c-4.4-3.6-10-6.4-17-8.4c-6.9-2-15.3-3-25.1-3h-9.5l-22.3,135.9h19v-50.3h8c2.4,0,4.3,0.4,5.6,1.1c1.3,0.7,2.5,2,3.5,3.7    l22.6,39.4c2.3,4,6.1,6,11.4,6h28.5L316.2,272.1z M300.7,234.5c-0.9,2.6-2.3,4.8-4.2,6.8c-1.9,1.9-4.4,3.4-7.4,4.5    c-3,1.1-6.7,1.6-11,1.6h-12.7v-40.3h12.7c8.1,0,14.2,1.7,18,5c3.9,3.4,5.8,8,5.8,14C302,229.1,301.6,231.9,300.7,234.5z"/>
		<path class="st0" d="M252.9,224.7l9.1-55.5c-4.1-2.9-9.2-5.2-15.4-6.9c-6.6-1.7-14.6-2.6-24-2.6h-50v135.9h54.3    c5.3,0,10.1-0.4,14.6-1.3l11.2-68.7L252.9,224.7z M204.1,183.3h18.5c3.5,0,6.6,0.3,9.2,0.8c2.6,0.6,4.7,1.5,6.4,2.8    c1.7,1.3,2.9,3,3.7,5.2c0.8,2.1,1.2,4.8,1.2,8.1c0,3.3-0.5,6-1.5,8.2c-1,2.2-2.5,3.9-4.5,5.1c-2,1.2-4.3,2.1-7.1,2.6    c-2.8,0.5-5.9,0.7-9.4,0.7h-16.4V183.3z M245.8,260.4c-0.6,2.1-1.6,4-3.1,5.7c-1.5,1.7-3.6,3-6.2,4.1c-2.6,1.1-6,1.6-10.2,1.6    h-22.2v-33.8h22c4,0,7.3,0.4,9.9,1.1s4.7,1.8,6.3,3.2c1.6,1.4,2.7,3,3.4,5c0.7,2,1,4.2,1,6.7C246.6,256.1,246.3,258.3,245.8,260.4    z"/>
	</g>
</g>
</svg>