<svg xmlns="http://www.w3.org/2000/svg" xmlns:xlink="http://www.w3.org/1999/xlink" version="1.1" id="layer" x="0px" y="0px" style="enable-background:new 0 0 652 652;" xml:space="preserve" viewBox="236.7 228 130.7 121.2">
<style type="text/css">
	.st0{fill:#91C21D;}
	.st1{fill:#0063A6;}
</style>
<g>
	<path class="st0" d="M297.4,327.1c-12.5,0-22.7-9.3-22.7-21l0-3.8h48.4c16.7,0,30.4-12.7,30.4-28.2v-17.9   c0-15.6-13.6-28.2-30.4-28.2h-42.2c-2.4,0-4.7,0-7.1,0.5c-13.7,3-23.3,14.6-23.3,27.7v10.4c0,2.4,1.7,4.3,3.9,4.3h16.4   c2.1,0,3.9-1.9,3.9-4.3V264v-4.1c0-5.4,4.8-9.8,10.8-9.8h33.1c5.9,0,10.8,4.4,10.8,9.8v10.6c0,5.4-4.8,9.8-10.8,9.8h-81.9v22h13.8   v3.8c0,23.8,21.1,43.1,47,43.1h69.9v-22.1H297.4z"/>
</g>
</svg>