<svg xmlns="http://www.w3.org/2000/svg" xmlns:xlink="http://www.w3.org/1999/xlink" id="Calque_1" data-name="Calque 1" viewBox="0.04 0.04 455.4 455.37">
    <defs>
        <style>.cls-1{fill:#020203;}.cls-2{fill:url(#Dégradé_sans_nom_48);}.cls-3{fill:#fff;}</style>
        <linearGradient id="Dégradé_sans_nom_48" x1="161.56" y1="391.56" x2="616.96" y2="391.56" gradientUnits="userSpaceOnUse">
            <stop offset="0" stop-color="#fb1626"/>
            <stop offset="1" stop-color="#bb0d5a"/>
        </linearGradient>
    </defs>
    <path class="cls-2" d="M617,391.56c0,5.76-.21,11.48-.63,17.13a226.59,226.59,0,0,1-12.3,58.7c-31.24,88.48-115.6,151.88-214.77,151.88-125.76,0-227.7-102-227.7-227.71,0-5.6.21-11.16.6-16.67,0-.33.05-.67.08-1a226.67,226.67,0,0,1,11.52-56l.81-2.33c31.29-88.36,115.61-151.66,214.69-151.66C515,163.86,617,265.81,617,391.56Z" transform="translate(-161.56 -163.86)"/>
    <path class="cls-3" d="M616.33,408.69a226.59,226.59,0,0,1-12.3,58.7L321.05,519l-6,1.1a34.72,34.72,0,0,1-6.11.56,29.07,29.07,0,0,1-5.57-.52h-.07a35.49,35.49,0,0,1-18.38-9.65,35.19,35.19,0,0,1-7.22-39.82,36.66,36.66,0,0,1,2.9-5.11l0,0,0,0,138-138L162.54,373.83l-.3.06a226.67,226.67,0,0,1,11.52-56l.81-2.33,292.68-53.4,8.64-1.57a29.13,29.13,0,0,1,5.1-.46,28.31,28.31,0,0,1,4.86.42,35.86,35.86,0,0,1,28.91,28.71,35.6,35.6,0,0,1-9.44,31.1l0,0-1.35,1.34-133,131.72Z" transform="translate(-161.56 -163.86)"/>
</svg>